<svg xmlns="http://www.w3.org/2000/svg" width="326" height="53" viewBox="0 0 326 53" aria-label="Logo of Deltalife" svg-title="Logo of Deltalife" class="w-44 lg:w-80 h-auto text-white" data-v-1a1f8502=""><path fill="currentColor" d="M1,26.5c0,5,1.5,10,4.3,14.2c2.8,4.2,6.8,7.5,11.5,9.4c4.7,1.9,9.8,2.4,14.8,1.5c5-1,9.5-3.4,13.1-7c3.6-3.6,6-8.1,7-13.1
	s0.5-10.1-1.5-14.7c-1.9-4.7-5.2-8.6-9.4-11.4C36.6,2.5,31.6,1,26.6,1C19.8,1,13.3,3.7,8.5,8.5C3.7,13.3,1,19.7,1,26.5z M22.8,4.3
	H23c-2.8,2.7-4.1,6.6,3.9,4.9c8.6-1.8,17.2-2.1,12,4c-2.3,2.7,0.8,1.7,2.9,2c0.8,0.1,4.8,0.4,3.8,2.3C37.2,16.6,21.2,24.8,17,34
	l-0.4-0.3c0.4-2.8,3.2-8.9,8.3-12.9c5.9-4.7,8.1-8.4,0.5-7.3C12.1,15.4,18.2,6.8,22.8,4.3z M36.6,23.5c10.9-3.8,11.6,0.3,9,2.1
	c-2.4,1.7-8.1,4.9-3.5,4.9c3.7,0,5.2,3.1-1.2,9.6c-1.9,1.9-4.2,3.5-6.7,4.5c-2.5,1-5.2,1.6-7.9,1.5c-1.6,0-3.2-0.2-4.8-0.5v-0.3
	c13.6,1.1,17.9-8.2,9.3-8.9C24,35.9,24.3,27.8,36.6,23.5L36.6,23.5z M63.5,26.4c0,5.3,2.9,8.9,8.2,8.9c3.5,0,6.4-1.4,7.5-5.3
	l-3.3-0.8c-0.2,0.9-0.7,1.8-1.4,2.4c-0.7,0.6-1.7,0.9-2.6,0.8c-2.6,0-4.3-1.6-4.5-5.2h11.9c0.3-6.6-2.8-9.6-7.5-9.6
	C66.9,17.7,63.5,20.8,63.5,26.4L63.5,26.4z M71.6,20.5c2.4,0,3.7,1.5,3.8,4.4h-8C67.7,21.8,69.3,20.5,71.6,20.5z M82.8,35h3.8V23.5
	c0.3-0.8,0.9-1.4,1.6-1.9c0.7-0.5,1.5-0.7,2.4-0.7c1.9,0,3.1,1.1,3.1,3.4V35h3.8V24c0-4-2.2-6.3-5.6-6.3c-1.1,0-2.2,0.2-3.2,0.8
	c-1,0.6-1.7,1.4-2.3,2.3V18h-3.7V35z M100.9,26.5c0,5.5,2.5,8.9,7,8.9c1,0,2-0.2,2.9-0.7c0.9-0.4,1.7-1.1,2.3-1.9V35h3.8V18H113v2.2
	c-0.6-0.8-1.4-1.4-2.3-1.8c-0.9-0.4-1.9-0.7-2.9-0.7C103.6,17.7,100.9,20.9,100.9,26.5L100.9,26.5z M104.7,26.5
	c0-3.5,1.6-5.7,4.3-5.7c0.8,0,1.6,0.2,2.3,0.6c0.7,0.4,1.3,1,1.7,1.8v6.7c-0.4,0.7-0.9,1.3-1.6,1.7c-0.7,0.4-1.5,0.6-2.3,0.6
	C106.4,32.2,104.7,30.1,104.7,26.5z M121.2,35h3.8v-2.1c0.6,0.8,1.4,1.4,2.3,1.8s1.8,0.6,2.8,0.7c4.4,0,7-3.3,7-8.9
	c0-5.6-2.7-8.8-7-8.8c-1,0-2,0.2-2.8,0.7c-0.9,0.4-1.7,1.1-2.3,1.8v-8.6h-3.8V35z M133.3,26.5c0,3.5-1.7,5.7-4.3,5.7
	c-0.8,0-1.6-0.2-2.3-0.6c-0.7-0.4-1.3-1-1.7-1.7v-6.8c0.4-0.7,1-1.3,1.7-1.8c0.7-0.4,1.5-0.6,2.3-0.6
	C131.8,20.8,133.3,23,133.3,26.5L133.3,26.5z M140.7,35h3.8V11.5h-3.8V35z M149,35h3.8V18H149V35z M148.5,13.6
	c0,0.5,0.1,0.9,0.4,1.3c0.3,0.4,0.6,0.7,1.1,0.9c0.4,0.2,0.9,0.2,1.4,0.1c0.5-0.1,0.9-0.3,1.2-0.7c0.3-0.3,0.6-0.8,0.7-1.2
	s0-1-0.1-1.4c-0.2-0.4-0.5-0.8-0.9-1.1c-0.4-0.3-0.9-0.4-1.3-0.4c-0.6,0-1.3,0.3-1.7,0.7C148.7,12.4,148.5,13,148.5,13.6z M157.3,35
	h3.8V23.5c0.3-0.8,0.9-1.4,1.6-1.9c0.7-0.5,1.5-0.7,2.4-0.7c1.9,0,3.2,1.1,3.2,3.4V35h3.8V24c0-4-2.2-6.3-5.6-6.3
	c-1.1,0-2.2,0.2-3.2,0.8c-1,0.6-1.7,1.4-2.3,2.3V18h-3.7L157.3,35z M175.4,25.7c0,4.8,2.6,8,6.6,8c1,0,2.1-0.2,3-0.7
	c0.9-0.5,1.7-1.2,2.3-2v2.7c0,2.6-1.4,4.1-4.1,4.1c-2.1,0-4-0.9-4.5-3.1l-3.1,1c0.9,3,3.5,4.7,7.6,4.7c5,0,8-2.8,8-6.8V18h-3.8v2.4
	c-0.6-0.8-1.4-1.5-2.3-2c-0.9-0.5-1.9-0.7-2.9-0.7C178,17.7,175.4,20.9,175.4,25.7z M179.2,25.7c0-3,1.4-4.9,3.9-4.9
	c0.9,0,1.7,0.3,2.4,0.7c0.7,0.4,1.3,1.1,1.7,1.8v4.8c-0.4,0.8-1,1.4-1.7,1.8s-1.6,0.7-2.4,0.7C180.7,30.7,179.2,28.9,179.2,25.7
	L179.2,25.7z M199.7,26.5c0,5.5,2.5,8.9,7,8.9c1,0,2-0.2,2.9-0.7c0.9-0.4,1.7-1.1,2.3-1.9V35h3.8V11.5h-3.8v8.7
	c-0.6-0.8-1.4-1.4-2.3-1.8s-1.9-0.7-2.9-0.7C202.4,17.7,199.7,20.9,199.7,26.5L199.7,26.5z M203.5,26.5c0-3.5,1.6-5.7,4.3-5.7
	c0.8,0,1.6,0.2,2.3,0.6c0.7,0.4,1.3,1,1.7,1.8v6.7c-0.4,0.7-0.9,1.3-1.6,1.7c-0.7,0.4-1.5,0.6-2.3,0.6
	C205.2,32.2,203.5,30.1,203.5,26.5z M219.2,26.4c0,5.3,2.9,8.9,8.2,8.9c3.5,0,6.3-1.4,7.5-5.3l-3.3-0.8c-0.2,0.9-0.7,1.8-1.4,2.4
	c-0.7,0.6-1.7,0.9-2.6,0.8c-2.6,0-4.3-1.6-4.5-5.2h11.9c0.3-6.6-2.8-9.6-7.5-9.6C222.5,17.7,219.2,20.8,219.2,26.4L219.2,26.4z
	 M227.2,20.5c2.4,0,3.7,1.5,3.8,4.4h-8C223.3,21.8,224.9,20.5,227.2,20.5z M238.4,35h3.8V11.5h-3.8V35z M244.8,21h2.6v8.6
	c0,4.2,1.9,5.7,5.8,5.7c0.9,0,1.8-0.2,2.6-0.5l-0.7-2.8c-0.5,0.3-1,0.5-1.6,0.5c-1.5,0-2.3-0.6-2.3-3.1V21h4v-3h-4v-6.5h-3.7V18
	h-2.8V21z M257.7,26.5c0,5.5,2.6,8.9,7,8.9c1,0,2-0.2,2.9-0.7c0.9-0.4,1.7-1.1,2.3-1.9V35h3.8V18h-3.8v2.2c-0.6-0.8-1.4-1.4-2.3-1.8
	s-1.9-0.7-2.9-0.7C260.4,17.7,257.7,20.9,257.7,26.5L257.7,26.5z M261.5,26.5c0-3.5,1.6-5.7,4.3-5.7c0.8,0,1.6,0.2,2.3,0.6
	c0.7,0.4,1.3,1,1.7,1.8v6.7c-0.4,0.7-0.9,1.3-1.6,1.7c-0.7,0.4-1.5,0.6-2.3,0.6C263.2,32.2,261.5,30.1,261.5,26.5z M283.2,35h3.8
	V11.5h-3.8V35z M291.4,35h3.8V18h-3.8V35z M290.9,13.6c0,0.5,0.1,0.9,0.4,1.3c0.3,0.4,0.6,0.7,1.1,0.9c0.4,0.2,0.9,0.2,1.4,0.1
	c0.5-0.1,0.9-0.3,1.2-0.7c0.3-0.3,0.6-0.8,0.7-1.2c0.1-0.5,0-1-0.1-1.4c-0.2-0.4-0.5-0.8-0.9-1.1c-0.4-0.3-0.9-0.4-1.3-0.4
	c-0.6,0-1.3,0.3-1.7,0.7C291.2,12.4,290.9,13,290.9,13.6z M300.5,35h3.8V21h3.9v-3h-3.9v-0.7c0-2.2,0.8-3.4,2.9-3.4
	c0.5,0,1,0.1,1.5,0.3l0.4-2.7c-0.7-0.2-1.5-0.3-2.2-0.3c-4,0-6.4,1.9-6.4,6V18h-2.6v3h2.6V35z M309.3,26.4c0,5.3,2.9,8.9,8.2,8.9
	c3.5,0,6.4-1.4,7.5-5.3l-3.3-0.8c-0.2,0.9-0.7,1.8-1.4,2.4c-0.8,0.6-1.7,0.9-2.6,0.8c-2.6,0-4.3-1.6-4.5-5.2H325
	c0.3-6.6-2.8-9.6-7.5-9.6C312.7,17.7,309.3,20.8,309.3,26.4L309.3,26.4z M317.4,20.5c2.4,0,3.7,1.5,3.8,4.4h-8
	C313.5,21.8,315,20.5,317.4,20.5z"></path></svg>