<?xml version="1.0" encoding="utf-8" standalone="no"?>
<!DOCTYPE svg PUBLIC "-//W3C//DTD SVG 1.1//EN"
  "http://www.w3.org/Graphics/SVG/1.1/DTD/svg11.dtd">
<svg xmlns:xlink="http://www.w3.org/1999/xlink" width="371.52pt" height="280.512pt" viewBox="0 0 371.52 280.512" xmlns="http://www.w3.org/2000/svg" version="1.1">
 <metadata>
  <rdf:RDF xmlns:dc="http://purl.org/dc/elements/1.1/" xmlns:cc="http://creativecommons.org/ns#" xmlns:rdf="http://www.w3.org/1999/02/22-rdf-syntax-ns#">
   <cc:Work>
    <dc:type rdf:resource="http://purl.org/dc/dcmitype/StillImage"/>
    <dc:date>2024-01-15T19:19:34.500482</dc:date>
    <dc:format>image/svg+xml</dc:format>
    <dc:creator>
     <cc:Agent>
      <dc:title>Matplotlib v3.8.1, https://matplotlib.org/</dc:title>
     </cc:Agent>
    </dc:creator>
   </cc:Work>
  </rdf:RDF>
 </metadata>
 <defs>
  <style type="text/css">*{stroke-linejoin: round; stroke-linecap: butt}</style>
 </defs>
 <g id="figure_1">
  <g id="patch_1">
   <path d="M 0 280.512
L 371.52 280.512
L 371.52 0
L 0 0
L 0 280.512
z
" style="fill: none"/>
  </g>
  <g id="axes_1">
   <g id="patch_2">
    <path d="M 7.2 273.312
L 364.32 273.312
L 364.32 7.2
L 7.2 7.2
L 7.2 273.312
z
" style="fill: none"/>
   </g>
   <g id="LineCollection_1">
    <path d="M 38.189752 176.910545
L 65.020706 176.910545
" clip-path="url(#p63f1ec7cfa)" style="fill: none; stroke: #4c566a"/>
    <path d="M 65.020706 176.910545
L 65.020706 30.292364
" clip-path="url(#p63f1ec7cfa)" style="fill: none; stroke: #4c566a"/>
    <path d="M 65.020706 176.910545
L 65.020706 103.601455
" clip-path="url(#p63f1ec7cfa)" style="fill: none; stroke: #4c566a"/>
    <path d="M 65.020706 176.910545
L 65.020706 250.219636
" clip-path="url(#p63f1ec7cfa)" style="fill: none; stroke: #4c566a"/>
    <path d="M 65.020706 30.292364
L 154.45722 30.292364
" clip-path="url(#p63f1ec7cfa)" style="fill: none; stroke: #4c566a"/>
    <path d="M 65.020706 103.601455
L 243.893734 103.601455
" clip-path="url(#p63f1ec7cfa)" style="fill: none; stroke: #4c566a"/>
    <path d="M 243.893734 103.601455
L 243.893734 250.219636
" clip-path="url(#p63f1ec7cfa)" style="fill: none; stroke: #4c566a"/>
    <path d="M 243.893734 250.219636
L 333.330248 250.219636
" clip-path="url(#p63f1ec7cfa)" style="fill: none; stroke: #4c566a"/>
    <path d="M 65.020706 250.219636
L 333.330248 250.219636
" clip-path="url(#p63f1ec7cfa)" style="fill: none; stroke: #4c566a"/>
   </g>
   <g id="matplotlib.axis_1">
    <g id="xtick_1"/>
    <g id="xtick_2"/>
    <g id="xtick_3"/>
    <g id="xtick_4"/>
    <g id="xtick_5"/>
    <g id="xtick_6"/>
    <g id="xtick_7"/>
    <g id="xtick_8"/>
   </g>
   <g id="matplotlib.axis_2">
    <g id="ytick_1"/>
    <g id="ytick_2"/>
    <g id="ytick_3"/>
    <g id="ytick_4"/>
    <g id="ytick_5"/>
    <g id="ytick_6"/>
    <g id="ytick_7"/>
   </g>
   <g id="PathCollection_1">
    <defs>
     <path id="C0_0_9593374fac" d="M 0 7.905694
C 2.096615 7.905694 4.10764 7.0727 5.59017 5.59017
C 7.0727 4.10764 7.905694 2.096615 7.905694 -0
C 7.905694 -2.096615 7.0727 -4.10764 5.59017 -5.59017
C 4.10764 -7.0727 2.096615 -7.905694 0 -7.905694
C -2.096615 -7.905694 -4.10764 -7.0727 -5.59017 -5.59017
C -7.0727 -4.10764 -7.905694 -2.096615 -7.905694 0
C -7.905694 2.096615 -7.0727 4.10764 -5.59017 5.59017
C -4.10764 7.0727 -2.096615 7.905694 0 7.905694
z
"/>
    </defs>
    <g clip-path="url(#p63f1ec7cfa)">
     <use xlink:href="#C0_0_9593374fac" x="38.189752" y="176.910545" style="fill: #bf616a; stroke: #4c566a; stroke-width: 0.5"/>
    </g>
    <g clip-path="url(#p63f1ec7cfa)">
     <use xlink:href="#C0_0_9593374fac" x="65.020706" y="176.910545" style="fill: #bf616a; stroke: #4c566a; stroke-width: 0.5"/>
    </g>
    <g clip-path="url(#p63f1ec7cfa)">
     <use xlink:href="#C0_0_9593374fac" x="65.020706" y="30.292364" style="fill: #d08770; stroke: #4c566a; stroke-width: 0.5"/>
    </g>
    <g clip-path="url(#p63f1ec7cfa)">
     <use xlink:href="#C0_0_9593374fac" x="154.45722" y="30.292364" style="fill: #d08770; stroke: #4c566a; stroke-width: 0.5"/>
    </g>
    <g clip-path="url(#p63f1ec7cfa)">
     <use xlink:href="#C0_0_9593374fac" x="65.020706" y="103.601455" style="fill: #ebcb8b; stroke: #4c566a; stroke-width: 0.5"/>
    </g>
    <g clip-path="url(#p63f1ec7cfa)">
     <use xlink:href="#C0_0_9593374fac" x="243.893734" y="103.601455" style="fill: #ebcb8b; stroke: #4c566a; stroke-width: 0.5"/>
    </g>
    <g clip-path="url(#p63f1ec7cfa)">
     <use xlink:href="#C0_0_9593374fac" x="243.893734" y="250.219636" style="fill: #a3be8c; stroke: #4c566a; stroke-width: 0.5"/>
    </g>
    <g clip-path="url(#p63f1ec7cfa)">
     <use xlink:href="#C0_0_9593374fac" x="333.330248" y="250.219636" style="fill: #a3be8c; stroke: #4c566a; stroke-width: 0.5"/>
    </g>
    <g clip-path="url(#p63f1ec7cfa)">
     <use xlink:href="#C0_0_9593374fac" x="65.020706" y="250.219636" style="fill: #a3be8c; stroke: #4c566a; stroke-width: 0.5"/>
    </g>
    <g clip-path="url(#p63f1ec7cfa)">
     <use xlink:href="#C0_0_9593374fac" x="333.330248" y="250.219636" style="fill: #a3be8c; stroke: #4c566a; stroke-width: 0.5"/>
    </g>
   </g>
   <g id="text_1">
    <g clip-path="url(#p63f1ec7cfa)">
     <!-- [a -->
     <g style="fill: #2e3440" transform="translate(26.871002 174.830858) scale(0.1 -0.1)">
      <defs>
       <path id="DejaVuSans-Bold-5b" d="M 550 4863
L 2491 4863
L 2491 4159
L 1613 4159
L 1613 -141
L 2491 -141
L 2491 -844
L 550 -844
L 550 4863
z
" transform="scale(0.015625)"/>
       <path id="DejaVuSans-Bold-61" d="M 2106 1575
Q 1756 1575 1579 1456
Q 1403 1338 1403 1106
Q 1403 894 1545 773
Q 1688 653 1941 653
Q 2256 653 2472 879
Q 2688 1106 2688 1447
L 2688 1575
L 2106 1575
z
M 3816 1997
L 3816 0
L 2688 0
L 2688 519
Q 2463 200 2181 54
Q 1900 -91 1497 -91
Q 953 -91 614 226
Q 275 544 275 1050
Q 275 1666 698 1953
Q 1122 2241 2028 2241
L 2688 2241
L 2688 2328
Q 2688 2594 2478 2717
Q 2269 2841 1825 2841
Q 1466 2841 1156 2769
Q 847 2697 581 2553
L 581 3406
Q 941 3494 1303 3539
Q 1666 3584 2028 3584
Q 2975 3584 3395 3211
Q 3816 2838 3816 1997
z
" transform="scale(0.015625)"/>
      </defs>
      <use xlink:href="#DejaVuSans-Bold-5b"/>
      <use xlink:href="#DejaVuSans-Bold-61" x="45.703125"/>
     </g>
    </g>
   </g>
   <g id="text_2">
    <g clip-path="url(#p63f1ec7cfa)">
     <!-- a] -->
     <g style="fill: #2e3440" transform="translate(53.701956 174.830858) scale(0.1 -0.1)">
      <defs>
       <path id="DejaVuSans-Bold-5d" d="M 2375 -844
L 434 -844
L 434 -141
L 1313 -141
L 1313 4159
L 434 4159
L 434 4863
L 2375 4863
L 2375 -844
z
" transform="scale(0.015625)"/>
      </defs>
      <use xlink:href="#DejaVuSans-Bold-61"/>
      <use xlink:href="#DejaVuSans-Bold-5d" x="67.480469"/>
     </g>
    </g>
   </g>
   <g id="text_3">
    <g clip-path="url(#p63f1ec7cfa)">
     <!-- [b -->
     <g style="fill: #2e3440" transform="translate(53.292581 28.212676) scale(0.1 -0.1)">
      <defs>
       <path id="DejaVuSans-Bold-62" d="M 2400 722
Q 2759 722 2948 984
Q 3138 1247 3138 1747
Q 3138 2247 2948 2509
Q 2759 2772 2400 2772
Q 2041 2772 1848 2508
Q 1656 2244 1656 1747
Q 1656 1250 1848 986
Q 2041 722 2400 722
z
M 1656 2988
Q 1888 3294 2169 3439
Q 2450 3584 2816 3584
Q 3463 3584 3878 3070
Q 4294 2556 4294 1747
Q 4294 938 3878 423
Q 3463 -91 2816 -91
Q 2450 -91 2169 54
Q 1888 200 1656 506
L 1656 0
L 538 0
L 538 4863
L 1656 4863
L 1656 2988
z
" transform="scale(0.015625)"/>
      </defs>
      <use xlink:href="#DejaVuSans-Bold-5b"/>
      <use xlink:href="#DejaVuSans-Bold-62" x="45.703125"/>
     </g>
    </g>
   </g>
   <g id="text_4">
    <g clip-path="url(#p63f1ec7cfa)">
     <!-- b] -->
     <g style="fill: #2e3440" transform="translate(142.729095 28.212676) scale(0.1 -0.1)">
      <use xlink:href="#DejaVuSans-Bold-62"/>
      <use xlink:href="#DejaVuSans-Bold-5d" x="71.582031"/>
     </g>
    </g>
   </g>
   <g id="text_5">
    <g clip-path="url(#p63f1ec7cfa)">
     <!-- [c -->
     <g style="fill: #2e3440" transform="translate(54.522269 101.521767) scale(0.1 -0.1)">
      <defs>
       <path id="DejaVuSans-Bold-63" d="M 3366 3391
L 3366 2478
Q 3138 2634 2908 2709
Q 2678 2784 2431 2784
Q 1963 2784 1702 2511
Q 1441 2238 1441 1747
Q 1441 1256 1702 982
Q 1963 709 2431 709
Q 2694 709 2930 787
Q 3166 866 3366 1019
L 3366 103
Q 3103 6 2833 -42
Q 2563 -91 2291 -91
Q 1344 -91 809 395
Q 275 881 275 1747
Q 275 2613 809 3098
Q 1344 3584 2291 3584
Q 2566 3584 2833 3536
Q 3100 3488 3366 3391
z
" transform="scale(0.015625)"/>
      </defs>
      <use xlink:href="#DejaVuSans-Bold-5b"/>
      <use xlink:href="#DejaVuSans-Bold-63" x="45.703125"/>
     </g>
    </g>
   </g>
   <g id="text_6">
    <g clip-path="url(#p63f1ec7cfa)">
     <!-- c] -->
     <g style="fill: #2e3440" transform="translate(233.395297 101.521767) scale(0.1 -0.1)">
      <use xlink:href="#DejaVuSans-Bold-63"/>
      <use xlink:href="#DejaVuSans-Bold-5d" x="59.277344"/>
     </g>
    </g>
   </g>
   <g id="text_7">
    <g clip-path="url(#p63f1ec7cfa)">
     <!-- [d -->
     <g style="fill: #2e3440" transform="translate(232.165609 248.139949) scale(0.1 -0.1)">
      <defs>
       <path id="DejaVuSans-Bold-64" d="M 2919 2988
L 2919 4863
L 4044 4863
L 4044 0
L 2919 0
L 2919 506
Q 2688 197 2409 53
Q 2131 -91 1766 -91
Q 1119 -91 703 423
Q 288 938 288 1747
Q 288 2556 703 3070
Q 1119 3584 1766 3584
Q 2128 3584 2408 3439
Q 2688 3294 2919 2988
z
M 2181 722
Q 2541 722 2730 984
Q 2919 1247 2919 1747
Q 2919 2247 2730 2509
Q 2541 2772 2181 2772
Q 1825 2772 1636 2509
Q 1447 2247 1447 1747
Q 1447 1247 1636 984
Q 1825 722 2181 722
z
" transform="scale(0.015625)"/>
      </defs>
      <use xlink:href="#DejaVuSans-Bold-5b"/>
      <use xlink:href="#DejaVuSans-Bold-64" x="45.703125"/>
     </g>
    </g>
   </g>
   <g id="text_8">
    <g clip-path="url(#p63f1ec7cfa)">
     <!-- d] -->
     <g style="fill: #2e3440" transform="translate(321.602123 248.139949) scale(0.1 -0.1)">
      <use xlink:href="#DejaVuSans-Bold-64"/>
      <use xlink:href="#DejaVuSans-Bold-5d" x="71.582031"/>
     </g>
    </g>
   </g>
   <g id="text_9">
    <g clip-path="url(#p63f1ec7cfa)">
     <!-- [d -->
     <g style="fill: #2e3440" transform="translate(53.292581 248.139949) scale(0.1 -0.1)">
      <use xlink:href="#DejaVuSans-Bold-5b"/>
      <use xlink:href="#DejaVuSans-Bold-64" x="45.703125"/>
     </g>
    </g>
   </g>
   <g id="text_10">
    <g clip-path="url(#p63f1ec7cfa)">
     <!-- d] -->
     <g style="fill: #2e3440" transform="translate(321.602123 248.139949) scale(0.1 -0.1)">
      <use xlink:href="#DejaVuSans-Bold-64"/>
      <use xlink:href="#DejaVuSans-Bold-5d" x="71.582031"/>
     </g>
    </g>
   </g>
  </g>
 </g>
 <defs>
  <clipPath id="p63f1ec7cfa">
   <rect x="7.2" y="7.2" width="357.12" height="266.112"/>
  </clipPath>
 </defs>
</svg>
